HIERARCHY
ROOT Hips
{
  OFFSET 0 0 0
  CHANNELS 6 Xposition Yposition Zposition Zrotation Yrotation Xrotation
  JOINT LeftThigh
  {
    OFFSET 8.409438 0 -5.917753
    CHANNELS 3 Zrotation Yrotation Xrotation
    JOINT LeftLeg
    {
      OFFSET 0 0 -42.358652
      CHANNELS 3 Zrotation Yrotation Xrotation
      JOINT LeftFoot
      {
        OFFSET 0 0 -39.357303
        CHANNELS 3 Zrotation Yrotation Xrotation
      }
    }
  }
  JOINT RightThigh
  {
    OFFSET -8.409438 0 -5.917753
    CHANNELS 3 Zrotation Yrotation Xrotation
    JOINT RightLeg
    {
      OFFSET 0 0 -42.358652
      CHANNELS 3 Zrotation Yrotation Xrotation
      JOINT RightFoot
      {
        OFFSET 0 0 -39.357303
        CHANNELS 3 Zrotation Yrotation Xrotation
      }
    }
  }
  JOINT SpineLow
  {
    OFFSET 0 0 4.719101
    CHANNELS 3 Zrotation Yrotation Xrotation
    JOINT SpineMid
    {
      OFFSET 0 0 12.899191
      CHANNELS 3 Zrotation Yrotation Xrotation
      JOINT Chest
      {
        OFFSET 0 0 12.899191
        CHANNELS 3 Zrotation Yrotation Xrotation
        JOINT LeftShoulder
        {
          OFFSET 7.550562 1.41573 9.438202
          CHANNELS 3 Zrotation Yrotation Xrotation
          JOINT LeftArm
          {
            OFFSET 9.155056 0 4.247191
            CHANNELS 3 Zrotation Yrotation Xrotation
            JOINT LeftForearm
            {
              OFFSET 0 0 25.771955
              CHANNELS 3 Zrotation Yrotation Xrotation
              JOINT LeftHand
              {
                OFFSET 0 0 25.197169
                CHANNELS 3 Zrotation Yrotation Xrotation
              }
            }
          }
        }
        JOINT RightShoulder
        {
          OFFSET -7.550562 1.41573 9.438202
          CHANNELS 3 Zrotation Yrotation Xrotation
          JOINT RightArm
          {
            OFFSET -9.155056 0 4.247191
            CHANNELS 3 Zrotation Yrotation Xrotation
            JOINT RightForearm
            {
              OFFSET 0 0 -25.771955
              CHANNELS 3 Zrotation Yrotation Xrotation
              JOINT RightHand
              {
                OFFSET 0 0 -25.197169
                CHANNELS 3 Zrotation Yrotation Xrotation
              }
            }
          }
        }
        JOINT Neck
        {
          OFFSET 0 0 15.101124
          CHANNELS 3 Zrotation Yrotation Xrotation
          JOINT Head
          {
            OFFSET 0 0 11.325843
            CHANNELS 3 Zrotation Yrotation Xrotation
            End Site
            {
              OFFSET 0 0 14.157303
            }
          }
        }
      }
    }
  }
}
MOTION
Frames: 8
Frame Time: 0.0
0.0  93.25843  0.0  -0.537133  10.264449  -81.990826  19.511445  -21.869894  -13.419066  -6.577361  3.603234  14.792539  -0.201923  1.253612  -0.166642  -27.621909  -5.285216  -24.799528  -4.533971  20.161791  32.557197  3.299266  3.393225  -1.769483  5.251397  0.560113  -1.475938  14.317185  1.841493  -3.892163  14.317184  1.841493  -3.892164  4.284407  14.530296  4.80097  158.73799  10.901662  171.750952  -23.653792  43.212694  88.783409  40.792278  -48.65545  0.765392  26.84599  -2.201504  14.362862  -172.900929  52.003912  163.819022  -37.575105  4.985628  -133.039506  85.932916  17.291341  7.262888  -26.571442  -3.393199  6.199463  -19.890865  -2.821298  4.510563  
0.0  93.25843  0.0  -0.554142  9.529715  -82.202179  19.505703  -21.830759  -12.844477  -6.497145  3.49285  14.585484  -0.122137  1.309031  -0.17089  -26.474501  -5.198452  -24.712794  -4.465628  20.192327  32.489542  3.088726  3.38776  -1.703961  5.228097  0.519305  -1.437385  14.256718  1.720979  -3.796736  14.256718  1.720979  -3.796736  4.151919  14.487119  4.989732  158.611347  10.809644  171.878672  -23.535294  42.994874  88.909497  41.190153  -48.501177  0.413496  26.623456  -2.371642  14.522581  -171.972033  52.913909  164.266051  -37.985303  5.231393  -132.765323  85.539172  17.148766  7.689416  -26.279521  -3.320115  5.86325  -19.674512  -2.748711  4.262544  
0.0  93.25843  0.0  -0.558699  8.72587  -82.414653  19.148945  -21.764005  -12.42955  -6.31003  3.423401  14.484222  0.191034  1.347437  -0.017452  -25.397188  -5.072725  -24.566202  -4.336443  20.143992  32.336404  3.196385  3.474949  -1.58903  5.21889  0.480909  -1.380081  14.235048  1.603827  -3.649344  14.235047  1.603827  -3.649345  3.978037  14.40896  5.058915  158.376058  10.685354  172.065109  -23.308073  42.604722  89.137072  42.029113  -48.251272  -0.392331  26.449295  -2.583004  14.581079  -171.600742  53.855779  164.303065  -38.52508  5.642174  -132.309197  85.138363  17.000399  8.175506  -26.150805  -3.263691  5.515216  -19.580319  -2.690029  4.004097  
0.0  93.25843  0.0  -0.624776  7.721821  -82.672323  19.258782  -21.798595  -11.765216  -6.144413  3.40762  14.289583  0.343938  1.361446  -0.055403  -24.312591  -4.966766  -24.314054  -4.35229  20.028135  32.006973  3.087696  3.466672  -1.512854  5.200563  0.428872  -1.31451  14.189122  1.447392  -3.48258  14.189123  1.447392  -3.48258  3.900847  14.404966  5.111029  158.210001  10.677255  172.309936  -22.912115  41.918184  89.535104  43.314495  -47.883501  -1.739012  26.228915  -2.731653  14.56923  -171.507424  54.90635  163.810288  -39.213535  6.197846  -131.70467  84.848121  16.78604  8.687469  -25.781091  -3.247803  5.293013  -19.304304  -2.665149  3.839559  
0.0  93.25843  0.0  -0.703507  6.601737  -82.958173  19.417235  -21.846641  -11.102457  -5.912475  3.398204  14.150027  0.537089  1.369336  -0.059485  -23.266563  -4.84525  -23.975626  -4.330716  19.853207  31.553175  3.137246  3.522233  -1.425965  5.174945  0.372941  -1.234524  14.1235  1.277026  -3.277532  14.1235  1.277026  -3.277532  3.869449  14.378021  5.037764  158.084069  10.686908  172.563462  -22.297578  40.90822  90.11842  45.05587  -47.335875  -3.602824  26.061253  -2.908136  14.510271  -171.819583  56.058298  162.897744  -40.075558  6.945762  -130.98135  84.628475  16.466871  9.16797  -25.468386  -3.236935  5.054814  -19.071049  -2.644148  3.662523  
0.0  93.25843  0.0  -0.784696  5.418231  -83.257001  19.607405  -21.906014  -10.442627  -5.640465  3.384084  14.012574  0.764547  1.365407  0.018129  -22.27285  -4.742441  -23.590047  -4.322794  19.659413  30.999336  3.118392  3.48781  -1.348374  5.132033  0.309297  -1.143055  14.010801  1.082618  -3.043094  14.010802  1.082618  -3.043094  3.874311  14.409603  4.851132  158.040795  10.727265  172.809658  -21.466233  39.509543  90.899036  47.094284  -46.513941  -5.751257  25.88035  -3.05795  14.417934  -172.511453  57.34712  161.500594  -41.109122  7.882568  -130.161103  84.434934  16.010522  9.55633  -24.92453  -3.238795  4.909814  -18.663887  -2.634854  3.556084  
0.0  93.25843  0.0  -0.894746  4.135281  -83.634329  19.95393  -22.008431  -9.715895  -5.163152  3.474018  14.172356  0.86524  1.274577  -0.057209  -21.237063  -4.624184  -23.113113  -4.284792  19.429471  30.391986  3.098003  3.43772  -1.275219  5.082479  0.23935  -1.041714  13.879889  0.869005  -2.782987  13.879888  0.869005  -2.782987  3.896079  14.431584  4.639872  158.047341  10.830497  173.073911  -20.525908  37.843672  91.856802  49.372762  -45.276922  -7.975257  25.668736  -3.253702  14.332472  -173.651642  58.78851  159.578267  -42.195118  8.961829  -129.245612  84.29602  15.386968  9.824236  -24.266144  -3.238626  4.823063  -18.170596  -2.625682  3.494062  
0.0  93.25843  0.0  -1.034983  2.847465  -83.969163  20.417569  -22.13187  -9.030834  -5.061945  3.449203  13.897664  1.008921  1.252531  -0.00488  -20.225064  -4.537339  -22.675074  -4.214464  19.128489  29.778342  3.103422  3.381215  -1.190549  5.023564  0.160801  -0.965478  13.72285  0.637193  -2.592739  13.72285  0.637193  -2.592739  3.887864  14.476138  4.528377  158.250567  11.042043  173.334185  -19.341279  36.039011  93.009995  51.858671  -43.539449  -10.026269  25.285093  -3.478321  14.348039  -175.377838  60.38545  156.920063  -43.264175  10.121131  -128.21894  84.211808  14.569729  9.847204  -23.614421  -3.17758  4.778624  -17.682759  -2.572665  3.466213  
